# xmcd
#
# Track frame offsets: 
#        150
#        12855
#        26034
#        38779
#        52285
#        65650
#        79853
#        93105
#        106501
#        119308
#        132912
#        146200
#        158967
#        171339
#        185603
#        199349
#        212066
#        225403
#
# Disc length: 3170 seconds
#
# Revision: 1
# Processed by: cddbd v1.5.2PL0 Copyright (c) Steve Scherf et al.
# Submitted via: ExactAudioCopy v0.95b2
#
DISCID=fe0c6012
DTITLE=Lucille Bogan and Walter Roland - The Essential
DYEAR=2002
DGENRE=Blues
TTITLE0=Shave 'Em Dry
TTITLE1=Piano Stomp
TTITLE2=Early This Morning
TTITLE3=Baking Powder Blues
TTITLE4=Groceries On The Shelf
TTITLE5=I Hate That Train Called The M&O
TTITLE6=Changed Ways Blues
TTITLE7=Jookit Jookit
TTITLE8=School Boy Blues
TTITLE9=That's What My Baby Likes 
TTITLE10=Skin Game Blues
TTITLE11=Cold Blooded Murder
TTITLE12=Dice's Blues
TTITLE13=Pot Hound Blues
TTITLE14=Red Cross Blues No. 2
TTITLE15=New Way Blues
TTITLE16=45 Pistol Blues
TTITLE17=Stump Steady Daddy
EXTD=william hale
EXTT0=
EXTT1=
EXTT2=
EXTT3=
EXTT4=
EXTT5=
EXTT6=
EXTT7=
EXTT8=
EXTT9=
EXTT10=
EXTT11=
EXTT12=
EXTT13=
EXTT14=
EXTT15=
EXTT16=
EXTT17=
PLAYORDER=
